<?xml version="1.0" encoding="UTF-8"?>
<svg xmlns="http://www.w3.org/2000/svg" viewBox="0 0 1431 1656" fill="#2A2A2A">
  <g transform="matrix(1,0,0,1,-758.35903,-559.162659)">
    <g transform="matrix(2.666667,0,0,2.666667,0,0)">
      <path d="M511.094,232.155C512.983,240.849 514.985,249.101 516.458,257.446C517.333,262.407 520.565,263.118 524.62,263.645C550.519,267.008 574.971,274.822 597.393,288.343C632.572,309.557 655.281,340.322 666.299,379.763C667.562,384.284 669.78,387 674.022,389.25C687.137,396.205 695.676,407.279 700.147,421.369C706.239,440.567 706.659,459.906 701.236,479.376C693.31,507.834 656.138,530.884 625.598,519.442C612.634,514.585 603.541,505.458 598.558,492.949C588.11,466.722 587.913,439.924 597.399,413.419C603.691,395.84 616.619,384.82 635.021,381.073C640.201,380.018 640.277,378.163 638.669,374.065C622.954,334.021 594.298,307.615 554.016,293.377C546.002,290.544 537.755,288.574 529.471,286.738C527.686,286.342 525.902,285.972 523.489,286.868C524.359,294.118 526.035,301.296 528.201,308.335C528.843,310.421 531.394,310.405 533.352,310.819C558.095,316.046 581.208,325.033 601.293,340.774C610.909,348.31 619.52,356.88 626.456,367.015C627.557,368.624 629.072,370.082 628.928,372.986C610.954,377.588 598.518,389.474 590.003,405.592C586.766,404.807 586.094,402.327 584.901,400.459C572.506,381.039 556.093,366.63 533.261,361.366C502.908,354.368 476.719,363.053 454.404,384.333C452.597,386.056 450.991,388.003 449.097,389.618C444.062,393.913 440.351,393.309 436.745,387.717C434.943,384.922 433.366,381.971 431.439,379.268C416.537,358.363 388.033,360.558 373.145,379.45C359.537,396.717 353.796,417.125 350.307,438.382C348.577,448.919 348.77,459.613 347.439,470.179C346.615,476.727 342.968,482.338 341.451,488.65C334.549,517.373 343.812,540.598 366.305,558.638C386.916,575.168 411.218,583.852 436.907,588.497C473.171,595.054 508.91,592.817 543.526,579.575C570.678,569.188 592.828,552.605 606.23,526.021C607.958,522.593 609.527,521.766 613.08,523.759C631.988,534.361 651.162,534.389 670.354,524.484C673.292,522.968 675.853,522.457 678.646,524.637C680.884,526.383 683.341,526.423 686.172,525.777C714.046,519.411 740.434,509.478 763.631,492.458C781.123,479.624 795.421,464.011 801.972,442.638C804.433,434.607 805.409,426.417 804.109,418.003C801.62,401.888 791.149,393.335 776.405,389.417C755.522,383.869 736.629,390.114 718.662,400.428C715.493,402.247 712.58,404.508 709.513,406.51C708.549,407.139 707.162,408.293 706.489,408.003C702.22,406.156 701.16,401.573 698.694,398.171C696.918,395.722 699.149,394.504 700.623,393.35C711.096,385.147 722.707,378.964 735.453,375.262C753.638,369.982 771.796,369.403 789.751,376.755C812.573,386.098 822.839,407.347 820.633,430.716C817.491,464.001 797.964,487.053 772.411,506.154C770.195,507.81 767.432,508.902 766.051,511.692C767.153,514.322 769.79,514.868 771.879,516.045C789.334,525.883 795.751,541.507 789.547,560.447C786.399,570.058 779.539,576.754 770.68,581.469C761.426,586.395 751.448,588.898 741.127,589.996C736.576,590.48 736.604,592.146 738.113,595.835C744.784,612.145 749.105,628.965 748.389,646.811C747.937,658.059 745.769,668.948 741.821,679.44C740.374,683.283 740.254,686.752 741.792,690.517C746.009,700.84 750.086,711.22 754.22,721.578C754.467,722.196 754.863,722.786 754.967,723.426C755.349,725.768 757.43,728.272 755.053,730.438C752.926,732.377 750.346,731.363 747.964,730.613C738.917,727.762 729.818,725.059 720.857,721.959C716.184,720.342 712.704,720.834 708.604,724.093C690.862,738.197 670.351,746.023 648.036,749.39C636.144,751.183 624.204,751.623 612.192,751.271C607.624,751.137 605.671,749.523 605.601,744.756C605.385,730.106 600.585,716.695 593.751,703.921C592.562,701.698 591.254,699.847 588.337,701.866C586.145,703.384 584.429,704.512 586.275,707.773C600.86,733.539 598.854,759.776 587.927,786.087C583.761,796.119 578.253,805.419 571.8,814.199C567.286,820.343 561.09,823.615 554.112,825.655C536.432,830.823 518.343,831.183 500.137,829.872C491.646,829.261 483.313,827.794 475.179,825.278C467.284,822.836 460.992,818.341 456.224,811.421C444.502,794.406 436.365,775.96 433.971,755.357C432.288,740.869 434.283,726.732 441.065,713.624C443.109,709.674 442.602,707.496 439.116,704.474C423.084,690.577 416.42,672.918 419.367,651.779C419.528,650.627 419.288,649.318 419.753,648.325C424.351,638.494 420.246,629.66 416.933,620.625C414.875,615.013 413.204,609.236 411.745,603.436C410.876,599.984 409.253,598.116 405.717,597.068C385.827,591.172 367.736,581.811 352.188,567.939C336.635,554.062 326.356,537.178 323.689,516.184C323.384,513.789 322.643,512.161 320.236,511.293C299.187,503.702 289.586,487.087 285.972,466.404C282.76,448.021 284.265,429.88 291.937,412.592C296.762,401.719 304.372,393.31 315.064,387.979C318.785,386.124 320.845,383.563 322.055,379.553C331.917,346.875 351.037,320.65 378.1,300.071C384.629,295.107 384.619,295.164 381.027,287.942C373.981,273.776 366.796,259.676 360.029,245.378C355.213,235.202 361.81,225.618 372.521,226.678C377.296,227.15 380.345,229.889 382.413,234.079C389.27,247.972 396.179,261.839 403.107,275.697C406.389,282.262 406.407,282.19 413.183,279.273C436.508,269.235 460.793,263.309 486.24,262.705C490.724,262.599 491.689,260.927 490.744,256.857C488.379,246.656 486.129,236.427 484.035,226.167C482.344,217.882 486.464,211.37 494.032,209.859C499.535,208.761 507.731,212.93 508.583,221.065C508.961,224.672 510.159,228.193 511.094,232.155M690.462,583.054C691.999,577.269 693.418,571.448 695.12,565.712C696.087,562.452 695.394,559.955 693.05,557.562C686.611,550.986 679.294,545.498 671.875,540.126C671.048,539.527 670.133,539.127 668.996,539.597C667.506,540.99 667.133,543.024 666.477,544.875C649.368,593.085 614.061,622.646 567.917,641.1C565.924,641.897 563.936,642.535 561.63,641.852C552.835,639.246 543.857,637.745 534.682,637.043C514.337,635.487 493.957,634.916 474.215,640.598C465.359,643.147 457.768,642.369 449.806,638.712C447.729,637.758 444.969,635.323 442.992,637.625C441.074,639.859 443.622,642.392 444.986,644.245C448.2,648.609 448.17,651.76 444.264,656.207C436.472,665.078 439.86,680.08 450.146,685.227C449.86,682.163 447.827,679.733 447.591,676.673C446.713,665.29 452.141,657.577 464.558,652.685C486.024,644.229 508.416,643.582 530.963,645.138C543.915,646.032 556.755,648.061 568.647,653.854C576.773,657.813 582.43,663.663 583.4,673.105C583.491,673.996 583.838,674.691 585.025,674.99C587.608,674.218 588.981,671.835 590.535,669.756C597.743,660.111 601.83,649.102 604.585,637.491C606.269,630.397 610.858,626.934 616.43,628.232C622.215,629.579 624.813,634.479 623.582,641.473C621.749,651.883 618.305,661.73 613.571,671.162C612.892,672.516 611.397,673.785 612.337,675.648C636.323,669.705 678.023,620.456 690.462,583.054M535.86,698.648C534.878,698.829 533.903,699.104 532.913,699.176C512.555,700.667 492.356,700.395 472.812,693.439C469.383,692.219 467.619,692.748 467.118,696.822C466.481,701.996 464.28,706.676 461.205,710.951C459.461,713.376 457.726,715.885 456.496,718.588C451.152,730.335 450.574,728.219 460.87,735.975C466.75,740.405 472.775,740.631 478.989,736.846C481.689,735.202 484.303,733.417 486.952,731.69C497.449,724.844 508.832,725.738 518.118,734.096C520.591,736.322 523.067,738.557 525.686,740.604C534.678,747.629 543.086,747.739 551.204,739.811C558.28,732.899 565.511,727.907 575.924,730.611C576.315,730.712 576.831,730.336 577.846,729.996C577.313,723.085 573.483,717.634 569.814,712.214C566.794,707.752 564.132,703.255 563.361,697.798C562.795,693.792 560.607,692.482 556.633,693.979C550.225,696.393 543.507,697.587 535.86,698.648M624.656,735.317C641.166,734.44 657.319,732.041 672.895,725.991C713.53,710.208 735.549,675.212 731.478,631.95C731.106,627.99 730.832,623.805 728.316,619.471C711.375,676.094 673.816,712.468 620.029,733.589C620.836,734.454 621.095,734.979 621.47,735.082C622.254,735.299 623.1,735.294 624.656,735.317M750.341,571.708C757.085,570.586 762.943,567.603 768.142,563.234C778.191,554.79 778.089,541.254 767.773,533.062C762.617,528.967 756.616,526.676 750.222,525.035C745.793,523.899 741.975,523.988 737.774,526.005C726.81,531.268 715.339,535.236 703.519,538.155C702.254,538.468 700.814,538.498 700.182,540.349C700.358,540.73 700.487,541.443 700.909,541.862C710.018,550.931 718.215,560.758 725.515,571.335C726.779,573.167 728.594,573.622 730.721,573.685C737.071,573.873 743.349,573.484 750.341,571.708M469.214,667.697C465.243,671.463 465.32,673.011 469.723,675.518C471.164,676.339 472.718,676.967 474.247,677.62C486.753,682.96 500.094,684.105 513.376,684.307C527.677,684.525 542.048,683.604 555.568,678.079C559.07,676.648 564.493,676.129 564.283,671.231C564.091,666.755 558.893,666.364 555.433,665.17C539.118,659.54 522.152,658.492 505.162,659.608C493.115,660.399 480.883,661.434 469.214,667.697M430.009,318.122C443.791,312.968 458.043,309.981 472.655,308.316C480.477,307.425 488.284,307.871 496.091,307.529C499.982,307.358 502.065,306.198 500.817,301.695C499.667,297.546 499.048,293.247 498.252,289.003C497.642,285.752 495.992,284.294 492.445,284.306C467.934,284.386 444.614,289.671 422.421,299.984C416.873,302.562 416.838,302.979 419.613,308.638C420.859,311.179 422.225,313.666 423.356,316.256C424.634,319.179 426.571,319.832 430.009,318.122M622.137,469.562C623.023,478.337 626.336,486.284 630.547,493.901C632.097,496.703 634.276,499.007 637.025,500.705C638.176,501.416 639.473,502.125 640.715,501.091C642.161,499.887 641.627,498.444 640.864,497.036C639.123,493.824 636.96,490.75 635.775,487.34C625.668,458.261 625.517,430.009 643.338,403.415C644.182,402.156 645.169,400.82 643.85,399.374C642.511,397.906 640.976,398.858 639.736,399.541C634.754,402.282 631.383,406.491 628.877,411.551C619.843,429.799 620.14,449.15 622.137,469.562M350.419,369.863C349.754,371.566 348.997,373.24 348.45,374.98C347.963,376.528 347.189,378.341 349.397,379.256C351.144,379.98 352.661,379.426 353.759,377.866C354.428,376.914 355.086,375.952 355.712,374.972C365.711,359.32 378.71,346.634 393.946,336.126C402.938,329.925 402.979,332.817 397.821,321.619C395.093,315.695 394.316,315.649 389.274,319.639C372.374,333.015 359.762,349.698 350.419,369.863Z"/>
    </g>
    <g transform="matrix(2.666667,0,0,2.666667,0,0)">
      <path d="M531.747,475.863C515.667,485.698 499.458,478.922 496.036,461.285C493.786,449.688 502.71,438.036 515.345,436.074C526.605,434.326 538.075,443.515 539.428,454.922C540.411,463.199 537.968,469.967 531.747,475.863Z"/>
    </g>
    <g transform="matrix(2.666667,0,0,2.666667,0,0)">
      <path d="M371.509,473.463C360.1,460.474 366.117,441.824 380.845,436.955C390.81,433.661 402.023,438.415 406.674,447.674C411.847,457.971 409.212,469.868 400.34,476.274C391.282,482.814 380.087,481.823 371.509,473.463Z"/>
    </g>
    <g transform="matrix(2.666667,0,0,2.666667,0,0)">
      <path d="M422.307,503.172C422.009,502.141 421.786,501.499 421.737,500.844C421.451,497.05 422.134,493.676 426.51,492.77C430.67,491.909 433.111,494.048 434.356,497.908C435.554,501.62 437.366,504.942 440.678,507.244C447.726,512.143 457.618,510.004 461.992,502.555C462.913,500.987 463.68,499.293 464.267,497.571C465.638,493.545 468.091,491.321 472.52,492.463C476.332,493.446 478.09,497.09 476.875,501.728C474.066,512.451 467.346,519.574 456.555,522.284C441.572,526.047 428.131,518.516 422.307,503.172Z"/>
    </g>
  </g>
</svg>
